<svg width="20" height="20" viewBox="0 0 20 20" fill="none" xmlns="http://www.w3.org/2000/svg">
<path d="M17.47 10C17.47 5.87443 14.1256 2.53 10 2.53C5.87443 2.53 2.53 5.87443 2.53 10C2.53 14.1256 5.87443 17.47 10 17.47C14.1256 17.47 17.47 14.1256 17.47 10ZM19.13 10C19.13 15.0423 15.0423 19.13 10 19.13C4.95764 19.13 0.869995 15.0423 0.869995 10C0.869995 4.95764 4.95764 0.869995 10 0.869995C15.0423 0.869995 19.13 4.95764 19.13 10Z" fill="#171A1F"/>
<path d="M12.49 9.99998C12.49 8.62475 11.3752 7.50998 9.99998 7.50998C8.62475 7.50998 7.50998 8.62475 7.50998 9.99998C7.50998 11.3752 8.62475 12.49 9.99998 12.49C11.3752 12.49 12.49 11.3752 12.49 9.99998ZM14.15 9.99998C14.15 12.2919 12.2919 14.15 9.99998 14.15C7.708 14.15 5.84998 12.2919 5.84998 9.99998C5.84998 7.708 7.708 5.84998 9.99998 5.84998C12.2919 5.84998 14.15 7.708 14.15 9.99998Z" fill="#171A1F"/>
<path d="M17.6296 5.83997L17.7148 5.84402C18.1332 5.8866 18.4596 6.24027 18.4596 6.66997C18.4596 7.09966 18.1332 7.45334 17.7148 7.49592L17.6296 7.49997L10.0186 7.49997C9.56019 7.49997 9.1886 7.12836 9.1886 6.66997C9.1886 6.21157 9.56019 5.83997 10.0186 5.83997L17.6296 5.83997Z" fill="#171A1F"/>
<path d="M2.87601 4.3459C3.24814 4.13108 3.71767 4.23725 3.96375 4.57852L4.00996 4.64985L7.81953 11.2396L7.85844 11.315C8.03113 11.6985 7.88828 12.1584 7.51639 12.3736C7.14438 12.5886 6.67491 12.4827 6.42863 12.1418L6.38243 12.0704L2.57205 5.47985L2.53395 5.40447C2.36131 5.02086 2.50396 4.56097 2.87601 4.3459Z" fill="#171A1F"/>
<path d="M12.1618 11.2699C12.3909 10.873 12.8988 10.7369 13.2958 10.9659C13.6926 11.195 13.8287 11.7029 13.5997 12.0999L9.79825 18.6896L9.75202 18.761C9.50618 19.1023 9.03656 19.2092 8.66431 18.9944C8.2673 18.7654 8.13136 18.2575 8.36036 17.8604L12.1618 11.2699Z" fill="#171A1F"/>
</svg>
