<svg width="17" height="19" viewBox="0 0 17 19" fill="none" xmlns="http://www.w3.org/2000/svg">
<path d="M10.8152 17.43L10.8152 14.11C10.8152 14.0794 10.8167 14.0488 10.8201 14.0184C10.9114 13.1953 10.6751 12.3695 10.1627 11.7189C9.96591 11.4691 9.92989 11.1287 10.0687 10.8427C10.2074 10.5567 10.4973 10.375 10.8152 10.375C12.9948 10.3749 14.9652 8.9513 14.9652 6.64C14.9652 6.62242 14.9657 6.60486 14.9668 6.58731C15.021 5.74012 14.7841 4.90845 14.29 4.21808C14.1494 4.02161 14.1016 3.77361 14.1587 3.53885C14.2888 3.00434 14.3325 2.45475 14.294 1.90965C13.9673 2.0674 13.5267 2.32343 12.9728 2.73883C12.8097 2.86117 12.6083 2.91909 12.4071 2.90257L12.3204 2.89041C10.3617 2.51948 8.34708 2.49608 6.38147 2.8207L5.98918 2.89041C5.78867 2.92832 5.58224 2.89121 5.40882 2.78747L5.33668 2.73883C4.77623 2.31852 4.33199 2.0612 4.00414 1.90398C3.96212 2.44644 4.00958 2.99364 4.14842 3.52588C4.20274 3.73457 4.17335 3.95505 4.06899 4.14109L4.01954 4.2189C3.52721 4.90593 3.28845 5.74226 3.34355 6.58569C3.34473 6.60371 3.34517 6.62194 3.34517 6.64C3.34517 8.9513 5.31544 10.375 7.49517 10.375C7.81372 10.3751 8.10406 10.5574 8.2425 10.8443C8.38086 11.1314 8.34285 11.4728 8.1444 11.7221C7.88776 12.0446 7.69885 12.4111 7.58838 12.801C7.47713 13.1937 7.44334 13.6078 7.48949 14.0168L7.49517 14.11L7.49517 17.43C7.49517 17.8883 7.12349 18.2599 6.66517 18.26C6.20677 18.26 5.83517 17.8884 5.83517 17.43L5.83517 14.1464C5.77433 13.5444 5.82507 12.9328 5.99079 12.3479C6.03499 12.192 6.08744 12.0389 6.14723 11.8891C3.82277 11.3885 1.71278 9.60069 1.68679 6.69431L1.67706 6.46411C1.65467 5.44488 1.92668 4.44228 2.45762 3.57451C2.26164 2.59689 2.28918 1.58994 2.54192 0.620881L2.58812 0.488762C2.72035 0.195141 3.0147 1.89567e-09 3.34517 1.89568e-09L3.34517 0.83C3.34517 0.0355572 3.34458 0.0014608 3.34517 1.89568e-09L3.36706 1.89568e-09C3.37511 0.000190902 3.38416 0.000356918 3.3938 0.000813418C3.41309 0.00171812 3.43552 0.00328679 3.46108 0.00567719C3.51258 0.0104995 3.57678 0.0197291 3.65317 0.0340466C3.80633 0.0627563 4.00856 0.11454 4.25865 0.208313C4.70172 0.374463 5.29469 0.670856 6.03781 1.19637C8.09933 0.847438 10.2103 0.847488 12.2717 1.19637C13.0149 0.670765 13.6078 0.374496 14.0508 0.208313C14.301 0.114499 14.5032 0.0627729 14.6563 0.0340466C14.7329 0.0197042 14.7969 0.0105078 14.8485 0.00567719C14.8742 0.00325359 14.8971 0.00171812 14.9165 0.000813418C14.9262 0.000356918 14.9352 0.000190902 14.9433 1.89568e-09L14.9635 1.89568e-09C14.9641 -8.28104e-07 14.9651 -4.94718e-08 14.9652 0.632228V1.89568e-09C15.3479 7.47019e-05 15.6811 0.262006 15.7717 0.633846C16.0062 1.59704 16.0311 2.59738 15.8487 3.56883C16.4229 4.50485 16.694 5.59144 16.6235 6.69269C16.5983 9.60235 14.4844 11.3917 12.1574 11.8907C12.4397 12.6001 12.5517 13.3724 12.4752 14.1449L12.4752 17.43C12.4752 17.8883 12.1035 18.2599 11.6452 18.26C11.1868 18.26 10.8152 17.8884 10.8152 17.43Z" fill="#171A1F"/>
<path d="M0.83 11.6376C1.54812 11.6376 2.07718 12.0063 2.45433 12.3322C2.64228 12.4947 2.82924 12.6805 2.98849 12.8348C3.15676 12.9978 3.31086 13.143 3.47238 13.2724C3.7865 13.5241 4.10186 13.694 4.49448 13.7458C4.89364 13.7984 5.46529 13.7406 6.30363 13.3689C6.72265 13.1831 7.21285 13.3722 7.39867 13.7912C7.58446 14.2102 7.3954 14.7004 6.97637 14.8863C5.94311 15.3444 5.05981 15.4943 4.27807 15.3912C3.48992 15.2873 2.89775 14.9385 2.43488 14.5677C2.20802 14.386 2.00638 14.1938 1.83345 14.0262C1.65146 13.8499 1.51103 13.7113 1.36901 13.5886C1.08607 13.344 0.941735 13.2976 0.83 13.2976C0.371608 13.2976 0 12.926 0 12.4676C0 12.0092 0.371608 11.6376 0.83 11.6376Z" fill="#171A1F"/>
</svg>
