<svg width="38" height="41" viewBox="0 0 38 41" fill="none" xmlns="http://www.w3.org/2000/svg">
<path d="M13.4108 30.717C13.7996 29.2661 15.291 28.405 16.742 28.7938C18.1931 29.1826 19.0541 30.674 18.6653 32.1249L16.6066 39.8083C16.3878 40.6244 15.5489 41.1088 14.7327 40.8901L12.4338 40.2741C11.6177 40.0554 11.1333 39.2165 11.352 38.4003L13.4108 30.717Z" fill="#FF321F"/>
<path d="M23.011 26.8845C24.0732 25.8224 25.7956 25.8224 26.8578 26.8845L32.6536 32.6803C33.2512 33.2779 33.2512 34.2467 32.6536 34.8441L30.9708 36.5269C30.3732 37.1245 29.4046 37.1245 28.807 36.5269L23.011 30.7311C21.9489 29.6689 21.9489 27.9468 23.011 26.8845Z" fill="#FF321F"/>
<path d="M9.31298 21.9781C10.764 21.5893 12.2554 22.4505 12.6442 23.9015C13.033 25.3524 12.172 26.844 10.721 27.2328L2.54237 29.4243C1.72617 29.6429 0.887199 29.1586 0.668494 28.3424L0.0525154 26.0435C-0.16619 25.2273 0.318174 24.3884 1.13438 24.1697L9.31298 21.9781Z" fill="#FF321F"/>
<path d="M25.5061 0.668511C26.3223 0.887216 26.8066 1.72617 26.588 2.54237L21.0033 23.3843C20.6145 24.8353 19.1231 25.6963 17.672 25.3077C16.221 24.9189 15.36 23.4273 15.7486 21.9764L21.3331 1.1344C21.5519 0.318192 22.3909 -0.166186 23.207 0.0525109L25.5061 0.668511Z" fill="#FF321F"/>
<path d="M37.1715 18.5621C37.3901 19.3783 36.9058 20.2173 36.0896 20.436L28.0161 22.5991C26.5652 22.9879 25.0738 22.1269 24.685 20.6759C24.2962 19.2248 25.1572 17.7334 26.6082 17.3446L34.6817 15.1814C35.4978 14.9627 36.3368 15.4471 36.5554 16.2632L37.1715 18.5621Z" fill="#FF321F"/>
<path d="M14.1572 14.1841C15.2195 15.2463 15.2195 16.9684 14.1572 18.0307C13.095 19.0929 11.3729 19.0929 10.3107 18.0307L0.729863 8.44987C0.132364 7.85237 0.132364 6.88362 0.729863 6.28612L2.41269 4.60328C3.01021 4.00578 3.97894 4.00578 4.57645 4.60328L14.1572 14.1841Z" fill="#FF321F"/>
</svg>
